<mxfile host="app.diagrams.net" modified="2023-09-19T12:50:56.548Z" agent="Mozilla/5.0 (Macintosh; Intel Mac OS X 10_15_7) AppleWebKit/537.36 (KHTML, like Gecko) Chrome/117.0.0.0 Safari/537.36" etag="q9PbUrJAqvHOsoUCoe25" version="21.7.5" type="github">
  <diagram name="페이지-1" id="JmBqZG7gqCV8FV_7WTWP">
    <mxGraphModel dx="1461" dy="967" grid="1" gridSize="10" guides="1" tooltips="1" connect="1" arrows="1" fold="1" page="1" pageScale="1" pageWidth="827" pageHeight="1169" math="0" shadow="0">
      <root>
        <mxCell id="0" />
        <mxCell id="1" parent="0" />
        <mxCell id="b-6EBAAVgEiqF4_AeMtT-3" value="VPC" style="points=[[0,0],[0.25,0],[0.5,0],[0.75,0],[1,0],[1,0.25],[1,0.5],[1,0.75],[1,1],[0.75,1],[0.5,1],[0.25,1],[0,1],[0,0.75],[0,0.5],[0,0.25]];outlineConnect=0;gradientColor=none;html=1;whiteSpace=wrap;fontSize=12;fontStyle=0;container=1;pointerEvents=0;collapsible=0;recursiveResize=0;shape=mxgraph.aws4.group;grIcon=mxgraph.aws4.group_vpc;strokeColor=#248814;fillColor=none;verticalAlign=top;align=left;spacingLeft=30;fontColor=#AAB7B8;dashed=0;" parent="1" vertex="1">
          <mxGeometry x="120" y="200" width="520" height="440" as="geometry" />
        </mxCell>
        <mxCell id="b-6EBAAVgEiqF4_AeMtT-4" value="" style="rounded=1;arcSize=10;dashed=1;strokeColor=#F59D56;fillColor=none;gradientColor=none;dashPattern=8 4;strokeWidth=2;" parent="b-6EBAAVgEiqF4_AeMtT-3" vertex="1">
          <mxGeometry x="40" y="40" width="440" height="360" as="geometry" />
        </mxCell>
        <mxCell id="b-6EBAAVgEiqF4_AeMtT-7" value="Private subnet" style="points=[[0,0],[0.25,0],[0.5,0],[0.75,0],[1,0],[1,0.25],[1,0.5],[1,0.75],[1,1],[0.75,1],[0.5,1],[0.25,1],[0,1],[0,0.75],[0,0.5],[0,0.25]];outlineConnect=0;gradientColor=none;html=1;whiteSpace=wrap;fontSize=12;fontStyle=0;container=1;pointerEvents=0;collapsible=0;recursiveResize=0;shape=mxgraph.aws4.group;grIcon=mxgraph.aws4.group_security_group;grStroke=0;strokeColor=#147EBA;fillColor=#E6F2F8;verticalAlign=top;align=left;spacingLeft=30;fontColor=#147EBA;dashed=0;" parent="b-6EBAAVgEiqF4_AeMtT-3" vertex="1">
          <mxGeometry x="80" y="80" width="160" height="280" as="geometry" />
        </mxCell>
        <mxCell id="b-6EBAAVgEiqF4_AeMtT-2" value="&lt;b&gt;&lt;font style=&quot;font-size: 14px;&quot;&gt;GouPang&lt;/font&gt;&lt;/b&gt;" style="sketch=0;points=[[0,0,0],[0.25,0,0],[0.5,0,0],[0.75,0,0],[1,0,0],[0,1,0],[0.25,1,0],[0.5,1,0],[0.75,1,0],[1,1,0],[0,0.25,0],[0,0.5,0],[0,0.75,0],[1,0.25,0],[1,0.5,0],[1,0.75,0]];outlineConnect=0;fontColor=#232F3E;gradientColor=#F78E04;gradientDirection=north;fillColor=#D05C17;strokeColor=#ffffff;dashed=0;verticalLabelPosition=bottom;verticalAlign=top;align=center;html=1;fontSize=12;fontStyle=0;aspect=fixed;shape=mxgraph.aws4.resourceIcon;resIcon=mxgraph.aws4.ec2;" parent="b-6EBAAVgEiqF4_AeMtT-7" vertex="1">
          <mxGeometry x="41" y="101" width="78" height="78" as="geometry" />
        </mxCell>
        <mxCell id="b-6EBAAVgEiqF4_AeMtT-8" value="Public subnet" style="points=[[0,0],[0.25,0],[0.5,0],[0.75,0],[1,0],[1,0.25],[1,0.5],[1,0.75],[1,1],[0.75,1],[0.5,1],[0.25,1],[0,1],[0,0.75],[0,0.5],[0,0.25]];outlineConnect=0;gradientColor=none;html=1;whiteSpace=wrap;fontSize=12;fontStyle=0;container=1;pointerEvents=0;collapsible=0;recursiveResize=0;shape=mxgraph.aws4.group;grIcon=mxgraph.aws4.group_security_group;grStroke=0;strokeColor=#248814;fillColor=#E9F3E6;verticalAlign=top;align=left;spacingLeft=30;fontColor=#248814;dashed=0;" parent="b-6EBAAVgEiqF4_AeMtT-3" vertex="1">
          <mxGeometry x="279" y="80" width="160" height="280" as="geometry" />
        </mxCell>
        <mxCell id="b-6EBAAVgEiqF4_AeMtT-13" style="edgeStyle=orthogonalEdgeStyle;rounded=0;orthogonalLoop=1;jettySize=auto;html=1;strokeWidth=2;" parent="b-6EBAAVgEiqF4_AeMtT-3" source="b-6EBAAVgEiqF4_AeMtT-1" target="b-6EBAAVgEiqF4_AeMtT-2" edge="1">
          <mxGeometry relative="1" as="geometry">
            <Array as="points">
              <mxPoint x="250" y="220" />
              <mxPoint x="250" y="220" />
            </Array>
          </mxGeometry>
        </mxCell>
        <mxCell id="b-6EBAAVgEiqF4_AeMtT-1" value="&lt;b&gt;&lt;font style=&quot;font-size: 14px;&quot;&gt;Bastion Host&lt;/font&gt;&lt;/b&gt;" style="sketch=0;points=[[0,0,0],[0.25,0,0],[0.5,0,0],[0.75,0,0],[1,0,0],[0,1,0],[0.25,1,0],[0.5,1,0],[0.75,1,0],[1,1,0],[0,0.25,0],[0,0.5,0],[0,0.75,0],[1,0.25,0],[1,0.5,0],[1,0.75,0]];outlineConnect=0;fontColor=#232F3E;gradientColor=#F78E04;gradientDirection=north;fillColor=#D05C17;strokeColor=#ffffff;dashed=0;verticalLabelPosition=bottom;verticalAlign=top;align=center;html=1;fontSize=12;fontStyle=0;aspect=fixed;shape=mxgraph.aws4.resourceIcon;resIcon=mxgraph.aws4.ec2;" parent="b-6EBAAVgEiqF4_AeMtT-3" vertex="1">
          <mxGeometry x="320" y="181" width="78" height="78" as="geometry" />
        </mxCell>
        <mxCell id="b-6EBAAVgEiqF4_AeMtT-12" style="edgeStyle=orthogonalEdgeStyle;rounded=1;orthogonalLoop=1;jettySize=auto;html=1;strokeWidth=2;" parent="1" source="b-6EBAAVgEiqF4_AeMtT-9" target="b-6EBAAVgEiqF4_AeMtT-1" edge="1">
          <mxGeometry relative="1" as="geometry">
            <Array as="points">
              <mxPoint x="375" y="400" />
            </Array>
          </mxGeometry>
        </mxCell>
        <mxCell id="b-6EBAAVgEiqF4_AeMtT-9" value="" style="outlineConnect=0;dashed=0;verticalLabelPosition=bottom;verticalAlign=top;align=center;html=1;shape=mxgraph.aws3.internet_gateway;fillColor=#F58534;gradientColor=none;" parent="1" vertex="1">
          <mxGeometry x="340.5" y="160" width="69" height="72" as="geometry" />
        </mxCell>
        <mxCell id="b-6EBAAVgEiqF4_AeMtT-11" style="edgeStyle=orthogonalEdgeStyle;rounded=0;orthogonalLoop=1;jettySize=auto;html=1;entryX=0.5;entryY=0;entryDx=0;entryDy=0;entryPerimeter=0;strokeWidth=2;" parent="1" source="b-6EBAAVgEiqF4_AeMtT-10" target="b-6EBAAVgEiqF4_AeMtT-9" edge="1">
          <mxGeometry relative="1" as="geometry" />
        </mxCell>
        <mxCell id="b-6EBAAVgEiqF4_AeMtT-10" value="" style="sketch=0;outlineConnect=0;fontColor=#232F3E;gradientColor=none;fillColor=#232F3D;strokeColor=none;dashed=0;verticalLabelPosition=bottom;verticalAlign=top;align=center;html=1;fontSize=12;fontStyle=0;aspect=fixed;pointerEvents=1;shape=mxgraph.aws4.internet_alt1;" parent="1" vertex="1">
          <mxGeometry x="336" y="50" width="78" height="48" as="geometry" />
        </mxCell>
        <mxCell id="b-6EBAAVgEiqF4_AeMtT-14" value="VPC" style="points=[[0,0],[0.25,0],[0.5,0],[0.75,0],[1,0],[1,0.25],[1,0.5],[1,0.75],[1,1],[0.75,1],[0.5,1],[0.25,1],[0,1],[0,0.75],[0,0.5],[0,0.25]];outlineConnect=0;gradientColor=none;html=1;whiteSpace=wrap;fontSize=12;fontStyle=0;container=1;pointerEvents=0;collapsible=0;recursiveResize=0;shape=mxgraph.aws4.group;grIcon=mxgraph.aws4.group_vpc;strokeColor=#248814;fillColor=none;verticalAlign=top;align=left;spacingLeft=30;fontColor=#AAB7B8;dashed=0;" parent="1" vertex="1">
          <mxGeometry x="120" y="840" width="520" height="440" as="geometry" />
        </mxCell>
        <mxCell id="b-6EBAAVgEiqF4_AeMtT-15" value="" style="rounded=1;arcSize=10;dashed=1;strokeColor=#F59D56;fillColor=none;gradientColor=none;dashPattern=8 4;strokeWidth=2;" parent="b-6EBAAVgEiqF4_AeMtT-14" vertex="1">
          <mxGeometry x="40" y="40" width="440" height="360" as="geometry" />
        </mxCell>
        <mxCell id="b-6EBAAVgEiqF4_AeMtT-16" value="Private subnet" style="points=[[0,0],[0.25,0],[0.5,0],[0.75,0],[1,0],[1,0.25],[1,0.5],[1,0.75],[1,1],[0.75,1],[0.5,1],[0.25,1],[0,1],[0,0.75],[0,0.5],[0,0.25]];outlineConnect=0;gradientColor=none;html=1;whiteSpace=wrap;fontSize=12;fontStyle=0;container=1;pointerEvents=0;collapsible=0;recursiveResize=0;shape=mxgraph.aws4.group;grIcon=mxgraph.aws4.group_security_group;grStroke=0;strokeColor=#147EBA;fillColor=#E6F2F8;verticalAlign=top;align=left;spacingLeft=30;fontColor=#147EBA;dashed=0;" parent="b-6EBAAVgEiqF4_AeMtT-14" vertex="1">
          <mxGeometry x="80" y="80" width="160" height="280" as="geometry" />
        </mxCell>
        <mxCell id="b-6EBAAVgEiqF4_AeMtT-17" value="&lt;b&gt;&lt;font style=&quot;font-size: 14px;&quot;&gt;GouPang&lt;/font&gt;&lt;/b&gt;" style="sketch=0;points=[[0,0,0],[0.25,0,0],[0.5,0,0],[0.75,0,0],[1,0,0],[0,1,0],[0.25,1,0],[0.5,1,0],[0.75,1,0],[1,1,0],[0,0.25,0],[0,0.5,0],[0,0.75,0],[1,0.25,0],[1,0.5,0],[1,0.75,0]];outlineConnect=0;fontColor=#232F3E;gradientColor=#F78E04;gradientDirection=north;fillColor=#D05C17;strokeColor=#ffffff;dashed=0;verticalLabelPosition=bottom;verticalAlign=top;align=center;html=1;fontSize=12;fontStyle=0;aspect=fixed;shape=mxgraph.aws4.resourceIcon;resIcon=mxgraph.aws4.ec2;" parent="b-6EBAAVgEiqF4_AeMtT-16" vertex="1">
          <mxGeometry x="41" y="101" width="78" height="78" as="geometry" />
        </mxCell>
        <mxCell id="b-6EBAAVgEiqF4_AeMtT-18" value="Public subnet" style="points=[[0,0],[0.25,0],[0.5,0],[0.75,0],[1,0],[1,0.25],[1,0.5],[1,0.75],[1,1],[0.75,1],[0.5,1],[0.25,1],[0,1],[0,0.75],[0,0.5],[0,0.25]];outlineConnect=0;gradientColor=none;html=1;whiteSpace=wrap;fontSize=12;fontStyle=0;container=1;pointerEvents=0;collapsible=0;recursiveResize=0;shape=mxgraph.aws4.group;grIcon=mxgraph.aws4.group_security_group;grStroke=0;strokeColor=#248814;fillColor=#E9F3E6;verticalAlign=top;align=left;spacingLeft=30;fontColor=#248814;dashed=0;" parent="b-6EBAAVgEiqF4_AeMtT-14" vertex="1">
          <mxGeometry x="279" y="80" width="160" height="280" as="geometry" />
        </mxCell>
        <mxCell id="b-6EBAAVgEiqF4_AeMtT-20" value="&lt;b&gt;&lt;font style=&quot;font-size: 14px;&quot;&gt;Bastion Host&lt;/font&gt;&lt;/b&gt;" style="sketch=0;points=[[0,0,0],[0.25,0,0],[0.5,0,0],[0.75,0,0],[1,0,0],[0,1,0],[0.25,1,0],[0.5,1,0],[0.75,1,0],[1,1,0],[0,0.25,0],[0,0.5,0],[0,0.75,0],[1,0.25,0],[1,0.5,0],[1,0.75,0]];outlineConnect=0;fontColor=#232F3E;gradientColor=#F78E04;gradientDirection=north;fillColor=#D05C17;strokeColor=#ffffff;dashed=0;verticalLabelPosition=bottom;verticalAlign=top;align=center;html=1;fontSize=12;fontStyle=0;aspect=fixed;shape=mxgraph.aws4.resourceIcon;resIcon=mxgraph.aws4.ec2;" parent="b-6EBAAVgEiqF4_AeMtT-14" vertex="1">
          <mxGeometry x="320" y="181" width="78" height="78" as="geometry" />
        </mxCell>
        <mxCell id="b-6EBAAVgEiqF4_AeMtT-21" style="edgeStyle=orthogonalEdgeStyle;rounded=1;orthogonalLoop=1;jettySize=auto;html=1;strokeWidth=2;" parent="1" source="b-6EBAAVgEiqF4_AeMtT-22" target="b-6EBAAVgEiqF4_AeMtT-17" edge="1">
          <mxGeometry relative="1" as="geometry">
            <Array as="points">
              <mxPoint x="375" y="1060" />
            </Array>
          </mxGeometry>
        </mxCell>
        <mxCell id="b-6EBAAVgEiqF4_AeMtT-22" value="" style="outlineConnect=0;dashed=0;verticalLabelPosition=bottom;verticalAlign=top;align=center;html=1;shape=mxgraph.aws3.internet_gateway;fillColor=#F58534;gradientColor=none;" parent="1" vertex="1">
          <mxGeometry x="340.5" y="800" width="69" height="72" as="geometry" />
        </mxCell>
        <mxCell id="b-6EBAAVgEiqF4_AeMtT-23" style="edgeStyle=orthogonalEdgeStyle;rounded=0;orthogonalLoop=1;jettySize=auto;html=1;entryX=0.5;entryY=0;entryDx=0;entryDy=0;entryPerimeter=0;strokeWidth=2;" parent="1" source="b-6EBAAVgEiqF4_AeMtT-24" target="b-6EBAAVgEiqF4_AeMtT-22" edge="1">
          <mxGeometry relative="1" as="geometry" />
        </mxCell>
        <mxCell id="b-6EBAAVgEiqF4_AeMtT-24" value="" style="sketch=0;outlineConnect=0;fontColor=#232F3E;gradientColor=none;fillColor=#232F3D;strokeColor=none;dashed=0;verticalLabelPosition=bottom;verticalAlign=top;align=center;html=1;fontSize=12;fontStyle=0;aspect=fixed;pointerEvents=1;shape=mxgraph.aws4.internet_alt1;" parent="1" vertex="1">
          <mxGeometry x="336" y="690" width="78" height="48" as="geometry" />
        </mxCell>
      </root>
    </mxGraphModel>
  </diagram>
</mxfile>
